<svg version="1.0" xmlns="http://www.w3.org/2000/svg" xmlns:xlink="http://www.w3.org/1999/xlink" width="200" height="150" viewBox="81.6 92.5 183.6 70" preserveAspectRatio="xMidYMid meet" color-interpolation-filters="sRGB" style="margin: auto;">
  <g xmlns="http://www.w3.org/2000/svg" data-v-70b83f88="" class="iconlinesvg-g iconlinesvg" transform="translate(84.5374984741211,93.40999984741211)">
    <g class="tp-name">
      <g transform="translate(0, 0)">
        <g>
          <g class="imagesvg">
            <g>
              <rect fill="#333" fill-opacity="0" stroke-width="2" x="0" y="0" width="72.85285645751952" height="63.17999866231855" class="image-rect" />
              <svg x="0" y="0" width="72.85285645751952" height="63.17999866231855" filtersec="colorsb4411659821" class="image-svg-svg primary" style="overflow: visible;">
                <svg xmlns="http://www.w3.org/2000/svg" viewBox="0 0 115.30999755859375 100">
                  <title>7</title>
                  <g fill-rule="evenodd">
                    <path d="M55.25 46.31l31 53.55-16.53.14-22.34-39.85zM57.65 0L65 12.66l-48.11 83H22v4.2H0z" fill="#2D569E" />
                    <path d="M40.35 69.91l17.31 30-15.94.09-9.24-16.24zm29.11-49.46l45.85 79.41H99.2L61.59 34.29z" fill="#333" />
                  </g>
                </svg>
              </svg>
              <!---->
            </g>
          </g>
        </g>
      </g>
      <g transform="translate(76, 4.614999331159275)">
        <g data-gra="path-name" fill="#333" transform="scale(1)">
          <path d="M17.23 0.72L17.23 0.72Q12.48 0.72 9.29-1.14Q6.11-2.99 4.49-6.57Q2.86-10.14 2.67-15.34L2.67-15.34L10.92-16.96Q11.05-13.91 11.67-11.57Q12.29-9.23 13.55-7.96Q14.82-6.70 16.90-6.70L16.90-6.70Q19.24-6.70 20.21-8.09Q21.19-9.49 21.19-11.63L21.19-11.63Q21.19-15.08 19.63-17.29Q18.07-19.50 15.47-21.71L15.47-21.71L8.84-27.56Q6.04-29.96 4.39-32.92Q2.73-35.88 2.73-40.23L2.73-40.23Q2.73-46.48 6.37-49.86Q10.01-53.23 16.32-53.23L16.32-53.23Q20.02-53.23 22.49-52.10Q24.96-50.96 26.42-48.95Q27.89-46.93 28.60-44.36Q29.32-41.80 29.51-38.94L29.51-38.94L21.32-37.51Q21.19-39.98 20.77-41.93Q20.35-43.88 19.27-44.98Q18.20-46.09 16.12-46.09L16.12-46.09Q13.97-46.09 12.84-44.69Q11.70-43.29 11.70-41.21L11.70-41.21Q11.70-38.55 12.80-36.82Q13.91-35.10 15.99-33.28L15.99-33.28L22.55-27.50Q25.80-24.77 28.11-21.09Q30.42-17.42 30.42-12.22L30.42-12.22Q30.42-8.45 28.76-5.53Q27.11-2.60 24.15-0.94Q21.19 0.72 17.23 0.72Z" transform="translate(-2.665, 53.235)" />
        </g>
      </g>
      <g transform="translate(107, 4.614999331159275)">
        <g data-gra="path-name" fill="#333" transform="scale(1)">
          <path d="M10.34 0L1.30 0L11.83-52.65L22.10-52.65L32.63 0L23.73 0L21.64-12.16L12.48-12.16L10.34 0ZM17.03-40.37L13.46-18.27L20.61-18.27L17.03-40.37Z" transform="translate(-1.3, 53.235)" />
        </g>
      </g>
      <g transform="translate(142, 4.614999331159275)">
        <g data-gra="path-name" fill="#333" transform="scale(1)">
          <path d="M13.59 0L3.97 0L3.97-52.65L19.44-52.65Q24.18-52.65 27.14-50.90Q30.10-49.14 31.49-45.79Q32.89-42.45 32.89-37.70L32.89-37.70Q32.89-32.56 31.14-29.41Q29.38-26.26 26.23-24.83Q23.07-23.40 18.79-23.40L18.79-23.40L13.59-23.40L13.59 0ZM13.59-45.89L13.59-30.16L17.23-30.16Q19.82-30.16 21.29-30.91Q22.75-31.66 23.30-33.31Q23.86-34.97 23.86-37.77L23.86-37.77Q23.86-40.63 23.43-42.41Q23.01-44.20 21.61-45.05Q20.21-45.89 17.23-45.89L17.23-45.89L13.59-45.89Z" transform="translate(-3.9650000000000003, 53.235)" />
        </g>
      </g>
    </g>
    <!---->
  </g>
</svg>