<?xml version="1.0" encoding="UTF-8"?>
<svg id="Layer_2" data-name="Layer 2" xmlns="http://www.w3.org/2000/svg" viewBox="0 0 186.19 68.82">
  <defs>
    <style>
      .cls-1 {
        fill: rgba(51, 51, 51, 0);
      }

      .cls-2, .cls-3 {
        fill: #333;
      }

      .cls-4 {
        fill: #2d569e;
      }

      .cls-4, .cls-3 {
        fill-rule: evenodd;
      }
    </style>
  </defs>
  <g id="Layer_1-2" data-name="Layer 1">
    <g>
      <g>
        <rect class="cls-1" width="79.36" height="68.82"/>
        <g>
          <path class="cls-4" d="m38.02,31.87l21.34,36.85-11.38.1-15.38-27.43,5.42-9.53Zm1.65-31.87l5.06,8.71L11.62,65.84h3.52v2.89H0L39.68,0Z"/>
          <path class="cls-3" d="m27.77,48.11l11.91,20.65-10.97.06-6.36-11.18,5.42-9.53ZM47.8,14.07l31.56,54.65h-11.09l-25.88-45.13,5.42-9.53Z"/>
        </g>
      </g>
      <path class="cls-2" d="m98.65,63.8h0c-3.45,0-6.33-.68-8.65-2.03-2.31-1.34-4.05-3.32-5.23-5.92-1.18-2.59-1.84-5.78-1.98-9.55h0l8.99-1.76c.09,2.21.37,4.17.82,5.87s1.13,3.01,2.05,3.93c.92.92,2.14,1.37,3.65,1.37h0c1.7,0,2.9-.5,3.61-1.51.71-1.02,1.07-2.3,1.07-3.86h0c0-2.51-.57-4.56-1.7-6.17-1.13-1.6-2.64-3.21-4.53-4.81h0l-7.22-6.37c-2.03-1.74-3.65-3.69-4.85-5.84-1.21-2.15-1.81-4.8-1.81-7.96h0c0-4.54,1.32-8.04,3.97-10.49,2.64-2.45,6.26-3.67,10.84-3.67h0c2.69,0,4.93.41,6.72,1.23,1.79.83,3.22,1.97,4.28,3.43,1.07,1.47,1.86,3.13,2.37,5,.52,1.86.85,3.83.99,5.9h0l-8.92,1.56c-.09-1.79-.29-3.4-.6-4.81s-.85-2.52-1.63-3.32c-.78-.81-1.92-1.21-3.43-1.21h0c-1.56,0-2.75.51-3.57,1.53-.83,1.02-1.24,2.28-1.24,3.79h0c0,1.93.4,3.53,1.2,4.78.81,1.25,1.96,2.53,3.47,3.86h0l7.15,6.3c2.36,1.98,4.38,4.31,6.06,6.98,1.68,2.67,2.52,5.89,2.52,9.66h0c0,2.74-.6,5.17-1.81,7.29-1.2,2.13-2.87,3.79-5.02,5-2.15,1.21-4.66,1.81-7.54,1.81Z"/>
      <path class="cls-2" d="m126.41,63.02h-9.85l11.47-57.35h11.19l11.47,57.35h-9.69l-2.28-13.25h-9.98l-2.33,13.25Zm7.29-43.98l-3.89,24.07h7.79l-3.9-24.07Z"/>
      <path class="cls-2" d="m165.17,63.02h-10.48V5.66h16.85c3.44,0,6.24.64,8.39,1.91,2.15,1.28,3.73,3.13,4.74,5.57,1.02,2.43,1.53,5.36,1.53,8.81h0c0,3.73-.64,6.74-1.91,9.03-1.28,2.29-3.06,3.95-5.35,4.99-2.29,1.04-5,1.56-8.1,1.56h-5.66v25.49Zm0-49.99v17.14h3.97c1.88,0,3.36-.27,4.42-.82,1.06-.54,1.79-1.42,2.19-2.61.41-1.21.61-2.82.61-4.86h0c0-2.08-.16-3.76-.47-5.05-.31-1.3-.97-2.26-1.98-2.88-1.02-.61-2.61-.92-4.77-.92h-3.97Z"/>
    </g>
  </g>
</svg>